
<svg width="1440" height="1024" viewBox="0 0 1440 1024" xmlns="http://www.w3.org/2000/svg">
  <rect width="1440" height="1024" fill="#FFFFFF" />
  
  
    <rect x="0" y="0" width="256" height="1024" fill="#FFFFFF" stroke="#000000" />
    <g transform="translate(0, 0)">
      <rect x="24" y="24" width="32" height="32" rx="8" fill="none" stroke="#000000" />
      <text x="68" y="46" font-family="Arial" font-size="20" font-weight="bold" fill="#000000">Bitspace</text>
      <line x1="24" y1="88" x2="232" y2="88" stroke="#000000" />
      
      
      <rect x="24" y="180" width="208" height="40" rx="8" fill="none" stroke="#000000" />
      <text x="36" y="205" font-family="Arial" font-size="14" fill="#000000">Dashboard</text>
    
      <rect x="24" y="228" width="208" height="40" rx="8" fill="none" stroke="#000000" />
      <text x="36" y="253" font-family="Arial" font-size="14" fill="#000000">Projects</text>
    
      <rect x="24" y="276" width="208" height="40" rx="8" fill="none" stroke="#000000" />
      <text x="36" y="301" font-family="Arial" font-size="14" fill="#000000">Meetings</text>
    
      <rect x="24" y="324" width="208" height="40" rx="8" fill="none" stroke="#000000" />
      <text x="36" y="349" font-family="Arial" font-size="14" fill="#000000">Admin</text>
    
      <rect x="24" y="372" width="208" height="40" rx="8" fill="none" stroke="#000000" />
      <text x="36" y="397" font-family="Arial" font-size="14" fill="#000000">Settings</text>
    
      
      <rect x="0" y="904" width="256" height="120" fill="#FFFFFF" stroke="#000000" />
      <rect x="24" y="920" width="208" height="72" rx="8" fill="none" stroke="#000000" />
      <circle cx="56" cy="956" r="20" fill="none" stroke="#000000" />
      <text x="84" y="951" font-family="Arial" font-size="14" fill="#000000">Alex Developer</text>
      <text x="84" y="968" font-family="Arial" font-size="12" fill="#000000">Owner</text>
      <rect x="24" y="1000" width="208" height="40" rx="8" fill="none" stroke="#000000" />
      <text x="36" y="1022" font-family="Arial" font-size="14" fill="#000000">Logout</text>
    </g>
  
  
    <rect x="272" y="16" width="1144" height="64" rx="12" fill="#FFFFFF" stroke="#000000" />
    <g transform="translate(272, 16)">
      <rect x="20" y="12" width="520" height="40" rx="8" fill="none" stroke="#000000" />
      <text x="40" y="38" font-family="Arial" font-size="14" fill="#000000">Search projects or tasks...</text>
      
      <circle cx="1080" cy="32" r="20" fill="none" stroke="#000000" />
      <circle cx="1120" cy="32" r="20" fill="none" stroke="#000000" />
    </g>
  
  
  <!-- Konten Utama -->
  <g transform="translate(272, 112)">
    <text x="0" y="30" font-family="Arial" font-size="32" font-weight="bold" fill="#000000">Admin Dashboard</text>
    <text x="0" y="55" font-family="Arial" font-size="14" fill="#000000">Manage users, projects, and system settings</text>
    
    <!-- Stats -->
    <g transform="translate(0, 80)">
      <rect x="0" y="0" width="276" height="88" rx="16" fill="#FFFFFF" stroke="#000000" />
      <text x="24" y="44" font-family="Arial" font-size="12" fill="#000000">Total Users</text>
      <text x="24" y="70" font-family="Arial" font-size="24" font-weight="bold" fill="#000000">12</text>
      
      <rect x="296" y="0" width="276" height="88" rx="16" fill="#FFFFFF" stroke="#000000" />
      <text x="320" y="44" font-family="Arial" font-size="12" fill="#000000">Active Projects</text>
      <text x="320" y="70" font-family="Arial" font-size="24" font-weight="bold" fill="#000000">5</text>
      
      <rect x="592" y="0" width="276" height="88" rx="16" fill="#FFFFFF" stroke="#000000" />
      <text x="616" y="44" font-family="Arial" font-size="12" fill="#000000">Total Meetings</text>
      <text x="616" y="70" font-family="Arial" font-size="24" font-weight="bold" fill="#000000">24</text>
    </g>
    
    <!-- User Management -->
    <g transform="translate(0, 200)">
      <rect x="0" y="0" width="1144" height="400" rx="16" fill="#FFFFFF" stroke="#000000" />
      <text x="24" y="40" font-family="Arial" font-size="18" font-weight="bold" fill="#000000">User Management</text>
      <rect x="920" y="20" width="200" height="40" rx="8" fill="none" stroke="#000000" />
      <text x="1020" y="46" font-family="Arial" font-size="12" font-weight="bold" fill="#000000" text-anchor="middle">Invite User</text>
      
      <!-- User Table -->
      <g transform="translate(24, 60)">
        <rect x="0" y="0" width="1096" height="56" fill="#FFFFFF" stroke="#000000" />
        <text x="24" y="34" font-family="Arial" font-size="12" font-weight="bold" fill="#000000">NAME</text>
        <text x="350" y="34" font-family="Arial" font-size="12" font-weight="bold" fill="#000000">EMAIL</text>
        <text x="600" y="34" font-family="Arial" font-size="12" font-weight="bold" fill="#000000">ROLE</text>
        <text x="800" y="34" font-family="Arial" font-size="12" font-weight="bold" fill="#000000">STATUS</text>
        <text x="950" y="34" font-family="Arial" font-size="12" font-weight="bold" fill="#000000">ACTIONS</text>
        
        <!-- User 1 -->
        <rect x="0" y="56" width="1096" height="60" fill="#FFFFFF" stroke="#000000" />
        <circle cx="56" cy="86" r="20" fill="none" stroke="#000000" />
        <text x="92" y="76" font-family="Arial" font-size="12" font-weight="bold" fill="#000000">Alex Developer</text>
        <text x="350" y="76" font-family="Arial" font-size="12" fill="#000000">alex@example.com</text>
        <rect x="600" y="66" width="80" height="24" rx="12" fill="none" stroke="#000000" />
        <text x="640" y="82" font-family="Arial" font-size="10" text-anchor="middle" fill="#000000">Owner</text>
        <rect x="800" y="66" width="80" height="24" rx="12" fill="none" stroke="#000000" />
        <text x="840" y="82" font-family="Arial" font-size="10" text-anchor="middle" fill="#000000">Active</text>
        
        <!-- User 2 -->
        <rect x="0" y="116" width="1096" height="60" fill="#FFFFFF" stroke="#000000" />
        <circle cx="56" cy="146" r="20" fill="none" stroke="#000000" />
        <text x="92" y="136" font-family="Arial" font-size="12" font-weight="bold" fill="#000000">Sarah Designer</text>
        <text x="350" y="136" font-family="Arial" font-size="12" fill="#000000">sarah@example.com</text>
        <rect x="600" y="126" width="80" height="24" rx="12" fill="none" stroke="#000000" />
        <text x="640" y="142" font-family="Arial" font-size="10" text-anchor="middle" fill="#000000">Member</text>
        <rect x="800" y="126" width="80" height="24" rx="12" fill="none" stroke="#000000" />
        <text x="840" y="142" font-family="Arial" font-size="10" text-anchor="middle" fill="#000000">Active</text>
        
        <!-- User 3 -->
        <rect x="0" y="176" width="1096" height="60" fill="#FFFFFF" stroke="#000000" />
        <circle cx="56" cy="206" r="20" fill="none" stroke="#000000" />
        <text x="92" y="196" font-family="Arial" font-size="12" font-weight="bold" fill="#000000">Mike Engineer</text>
        <text x="350" y="196" font-family="Arial" font-size="12" fill="#000000">mike@example.com</text>
        <rect x="600" y="186" width="80" height="24" rx="12" fill="none" stroke="#000000" />
        <text x="640" y="202" font-family="Arial" font-size="10" text-anchor="middle" fill="#000000">Admin</text>
        <rect x="800" y="186" width="80" height="24" rx="12" fill="none" stroke="#000000" />
        <text x="840" y="202" font-family="Arial" font-size="10" text-anchor="middle" fill="#000000">Active</text>
      </g>
    </g>
  </g>
</svg>