
<svg width="1440" height="1024" viewBox="0 0 1440 1024" xmlns="http://www.w3.org/2000/svg">
  <rect width="1440" height="1024" fill="#FFFFFF" />
  
  
    <rect x="0" y="0" width="256" height="1024" fill="#FFFFFF" stroke="#000000" />
    <g transform="translate(0, 0)">
      <rect x="24" y="24" width="32" height="32" rx="8" fill="none" stroke="#000000" />
      <text x="68" y="46" font-family="Arial" font-size="20" font-weight="bold" fill="#000000">Bitspace</text>
      <line x1="24" y1="88" x2="232" y2="88" stroke="#000000" />
      
      
      <rect x="24" y="180" width="208" height="40" rx="8" fill="none" stroke="#000000" />
      <text x="36" y="205" font-family="Arial" font-size="14" fill="#000000">Dashboard</text>
    
      <rect x="24" y="228" width="208" height="40" rx="8" fill="none" stroke="#000000" />
      <text x="36" y="253" font-family="Arial" font-size="14" fill="#000000">Projects</text>
    
      <rect x="24" y="276" width="208" height="40" rx="8" fill="none" stroke="#000000" />
      <text x="36" y="301" font-family="Arial" font-size="14" fill="#000000">Meetings</text>
    
      <rect x="24" y="324" width="208" height="40" rx="8" fill="none" stroke="#000000" />
      <text x="36" y="349" font-family="Arial" font-size="14" fill="#000000">Settings</text>
    
      
      <rect x="0" y="904" width="256" height="120" fill="#FFFFFF" stroke="#000000" />
      <rect x="24" y="920" width="208" height="72" rx="8" fill="none" stroke="#000000" />
      <circle cx="56" cy="956" r="20" fill="none" stroke="#000000" />
      <text x="84" y="951" font-family="Arial" font-size="14" fill="#000000">Alex Developer</text>
      <text x="84" y="968" font-family="Arial" font-size="12" fill="#000000">Owner</text>
      <rect x="24" y="1000" width="208" height="40" rx="8" fill="none" stroke="#000000" />
      <text x="36" y="1022" font-family="Arial" font-size="14" fill="#000000">Logout</text>
    </g>
  
  
    <rect x="272" y="16" width="1144" height="64" rx="12" fill="#FFFFFF" stroke="#000000" />
    <g transform="translate(272, 16)">
      <rect x="20" y="12" width="520" height="40" rx="8" fill="none" stroke="#000000" />
      <text x="40" y="38" font-family="Arial" font-size="14" fill="#000000">Search projects or tasks...</text>
      
      <circle cx="1080" cy="32" r="20" fill="none" stroke="#000000" />
      <circle cx="1120" cy="32" r="20" fill="none" stroke="#000000" />
    </g>
  
  
  <!-- Konten Utama -->
  <g transform="translate(272, 112)">
    <!-- Judul Halaman -->
    <text x="0" y="30" font-family="Arial" font-size="32" font-weight="bold" fill="#000000">Dashboard Overview</text>
    <text x="0" y="55" font-family="Arial" font-size="14" fill="#000000">Track your team's progress across all active developments</text>
    
    <!-- Statistik -->
    <g transform="translate(0, 80)">
      <rect x="0" y="0" width="276" height="88" rx="16" fill="#FFFFFF" stroke="#000000" />
      <text x="24" y="44" font-family="Arial" font-size="12" fill="#000000">Active Projects</text>
      <text x="24" y="70" font-family="Arial" font-size="24" font-weight="bold" fill="#000000">5</text>
      
      <rect x="296" y="0" width="276" height="88" rx="16" fill="#FFFFFF" stroke="#000000" />
      <text x="320" y="44" font-family="Arial" font-size="12" fill="#000000">Total Tasks</text>
      <text x="320" y="70" font-family="Arial" font-size="24" font-weight="bold" fill="#000000">42</text>
      
      <rect x="592" y="0" width="276" height="88" rx="16" fill="#FFFFFF" stroke="#000000" />
      <text x="616" y="44" font-family="Arial" font-size="12" fill="#000000">Completed</text>
      <text x="616" y="70" font-family="Arial" font-size="24" font-weight="bold" fill="#000000">28</text>
      
      <rect x="888" y="0" width="276" height="88" rx="16" fill="#FFFFFF" stroke="#000000" />
      <text x="912" y="44" font-family="Arial" font-size="12" fill="#000000">Overdue</text>
      <text x="912" y="70" font-family="Arial" font-size="24" font-weight="bold" fill="#000000">3</text>
    </g>
    
    <!-- Grafik -->
    <g transform="translate(0, 200)">
      <!-- Grafik Progress Proyek (Bar Chart) -->
      <rect x="0" y="0" width="556" height="320" rx="16" fill="#FFFFFF" stroke="#000000" />
      <text x="24" y="40" font-family="Arial" font-size="18" font-weight="bold" fill="#000000">Project Progress</text>
      
    <g>
      <!-- Sumbu Y -->
      <line x1="20" y1="40" x2="20" y2="280" stroke="#000000" />
      <!-- Sumbu X -->
      <line x1="20" y1="280" x2="536" y2="280" stroke="#000000" />
      
      <rect x="20" y="77.89473684210526" width="87.2" height="202.10526315789474" fill="none" stroke="#000000" />
      <text x="63.6" y="290" font-family="Arial" font-size="10" text-anchor="middle" fill="#000000">Neural</text>
    
      <rect x="123.2" y="153.68421052631578" width="87.2" height="126.3157894736842" fill="none" stroke="#000000" />
      <text x="166.8" y="290" font-family="Arial" font-size="10" text-anchor="middle" fill="#000000">E-Commerce</text>
    
      <rect x="226.4" y="40" width="87.2" height="240" fill="none" stroke="#000000" />
      <text x="270" y="290" font-family="Arial" font-size="10" text-anchor="middle" fill="#000000">Mobile</text>
    
      <rect x="329.6" y="103.15789473684211" width="87.2" height="176.8421052631579" fill="none" stroke="#000000" />
      <text x="373.20000000000005" y="290" font-family="Arial" font-size="10" text-anchor="middle" fill="#000000">API</text>
    
      <rect x="432.8" y="128.42105263157896" width="87.2" height="151.57894736842104" fill="none" stroke="#000000" />
      <text x="476.40000000000003" y="290" font-family="Arial" font-size="10" text-anchor="middle" fill="#000000">Design</text>
    
    </g>
  
      
      <!-- Pie Chart Task Status -->
      <rect x="588" y="0" width="556" height="320" rx="16" fill="#FFFFFF" stroke="#000000" />
      <text x="612" y="40" font-family="Arial" font-size="18" font-weight="bold" fill="#000000">Task Status</text>
      
    <g>
      <circle cx="800" cy="180" r="80" fill="none" stroke="#000000" />
      
      <path d="M 800 180 L 800 100 A 80 80 0 1 1 730.717967697245 220 Z" 
            fill="none" stroke="#000000" />
    
      <path d="M 800 180 L 730.717967697245 220 A 80 80 0 0 1 754.9343953549103 113.90089805472041 Z" 
            fill="none" stroke="#000000" />
    
      <path d="M 800 180 L 754.9343953549103 113.90089805472041 A 80 80 0 0 1 800 100 Z" 
            fill="none" stroke="#000000" />
    
    </g>
  
      <!-- Legend -->
      <g transform="translate(612, 260)">
        <rect x="0" y="0" width="12" height="12" rx="6" fill="none" stroke="#000000" />
        <text x="24" y="10" font-family="Arial" font-size="12" fill="#000000">Done</text>
        <rect x="100" y="0" width="12" height="12" rx="6" fill="none" stroke="#000000" />
        <text x="124" y="10" font-family="Arial" font-size="12" fill="#000000">In Progress</text>
        <rect x="220" y="0" width="12" height="12" rx="6" fill="none" stroke="#000000" />
        <text x="244" y="10" font-family="Arial" font-size="12" fill="#000000">To Do</text>
      </g>
    </g>
  </g>
</svg>