
<svg width="1440" height="1024" viewBox="0 0 1440 1024" xmlns="http://www.w3.org/2000/svg">
  <rect width="1440" height="1024" fill="#FFFFFF" />
  
  
    <rect x="0" y="0" width="256" height="1024" fill="#FFFFFF" stroke="#000000" />
    <g transform="translate(0, 0)">
      <rect x="24" y="24" width="32" height="32" rx="8" fill="none" stroke="#000000" />
      <text x="68" y="46" font-family="Arial" font-size="20" font-weight="bold" fill="#000000">Bitspace</text>
      <line x1="24" y1="88" x2="232" y2="88" stroke="#000000" />
      
      
      <rect x="24" y="180" width="208" height="40" rx="8" fill="none" stroke="#000000" />
      <text x="36" y="205" font-family="Arial" font-size="14" fill="#000000">Dashboard</text>
    
      <rect x="24" y="228" width="208" height="40" rx="8" fill="none" stroke="#000000" />
      <text x="36" y="253" font-family="Arial" font-size="14" fill="#000000">Projects</text>
    
      <rect x="24" y="276" width="208" height="40" rx="8" fill="none" stroke="#000000" />
      <text x="36" y="301" font-family="Arial" font-size="14" fill="#000000">Meetings</text>
    
      <rect x="24" y="324" width="208" height="40" rx="8" fill="none" stroke="#000000" />
      <text x="36" y="349" font-family="Arial" font-size="14" fill="#000000">Settings</text>
    
      
      <rect x="0" y="904" width="256" height="120" fill="#FFFFFF" stroke="#000000" />
      <rect x="24" y="920" width="208" height="72" rx="8" fill="none" stroke="#000000" />
      <circle cx="56" cy="956" r="20" fill="none" stroke="#000000" />
      <text x="84" y="951" font-family="Arial" font-size="14" fill="#000000">Alex Developer</text>
      <text x="84" y="968" font-family="Arial" font-size="12" fill="#000000">Owner</text>
      <rect x="24" y="1000" width="208" height="40" rx="8" fill="none" stroke="#000000" />
      <text x="36" y="1022" font-family="Arial" font-size="14" fill="#000000">Logout</text>
    </g>
  
  
    <rect x="272" y="16" width="1144" height="64" rx="12" fill="#FFFFFF" stroke="#000000" />
    <g transform="translate(272, 16)">
      <rect x="20" y="12" width="520" height="40" rx="8" fill="none" stroke="#000000" />
      <text x="40" y="38" font-family="Arial" font-size="14" fill="#000000">Search projects or tasks...</text>
      
      <circle cx="1080" cy="32" r="20" fill="none" stroke="#000000" />
      <circle cx="1120" cy="32" r="20" fill="none" stroke="#000000" />
    </g>
  
  
  <!-- Konten Utama -->
  <g transform="translate(272, 112)">
    <text x="0" y="30" font-family="Arial" font-size="32" font-weight="bold" fill="#000000">Meetings</text>
    <rect x="920" y="0" width="224" height="40" rx="8" fill="none" stroke="#000000" />
    <text x="1032" y="26" font-family="Arial" font-size="14" font-weight="bold" fill="#000000" text-anchor="middle">Schedule Meeting</text>
    
    <!-- Meetings List -->
    <g transform="translate(0, 80)">
      <!-- Meeting 1 -->
      <rect x="0" y="0" width="1144" height="120" rx="16" fill="#FFFFFF" stroke="#000000" />
      <text x="24" y="40" font-family="Arial" font-size="16" font-weight="bold" fill="#000000">Sprint Planning</text>
      <text x="24" y="65" font-family="Arial" font-size="12" fill="#000000">Tomorrow, 10:00 AM - 11:00 AM</text>
      <text x="24" y="90" font-family="Arial" font-size="12" fill="#000000">Neural Network Project • 4 attendees</text>
      <rect x="900" y="40" width="200" height="40" rx="8" fill="none" stroke="#000000" />
      <text x="1000" y="65" font-family="Arial" font-size="12" text-anchor="middle" fill="#000000">View Details</text>
      
      <!-- Meeting 2 -->
      <rect x="0" y="140" width="1144" height="120" rx="16" fill="#FFFFFF" stroke="#000000" />
      <text x="24" y="180" font-family="Arial" font-size="16" font-weight="bold" fill="#000000">Design Review</text>
      <text x="24" y="205" font-family="Arial" font-size="12" fill="#000000">Feb 20, 2:00 PM - 3:00 PM</text>
      <text x="24" y="230" font-family="Arial" font-size="12" fill="#000000">Mobile App Redesign • 3 attendees</text>
      <rect x="900" y="180" width="200" height="40" rx="8" fill="none" stroke="#000000" />
      <text x="1000" y="205" font-family="Arial" font-size="12" text-anchor="middle" fill="#000000">View Details</text>
      
      <!-- Meeting 3 -->
      <rect x="0" y="280" width="1144" height="120" rx="16" fill="#FFFFFF" stroke="#000000" />
      <text x="24" y="320" font-family="Arial" font-size="16" font-weight="bold" fill="#000000">Daily Standup</text>
      <text x="24" y="345" font-family="Arial" font-size="12" fill="#000000">Today, 9:00 AM - 9:15 AM</text>
      <text x="24" y="370" font-family="Arial" font-size="12" fill="#000000">All Projects • 5 attendees</text>
      <rect x="900" y="320" width="200" height="40" rx="8" fill="none" stroke="#000000" />
      <text x="1000" y="345" font-family="Arial" font-size="12" text-anchor="middle" fill="#000000">View Details</text>
    </g>
  </g>
</svg>