
<svg width="1440" height="1024" viewBox="0 0 1440 1024" xmlns="http://www.w3.org/2000/svg">
  <rect width="1440" height="1024" fill="#FFFFFF" />
  
  
    <rect x="0" y="0" width="256" height="1024" fill="#FFFFFF" stroke="#000000" />
    <g transform="translate(0, 0)">
      <rect x="24" y="24" width="32" height="32" rx="8" fill="none" stroke="#000000" />
      <text x="68" y="46" font-family="Arial" font-size="20" font-weight="bold" fill="#000000">Bitspace</text>
      <line x1="24" y1="88" x2="232" y2="88" stroke="#000000" />
      
      
      <rect x="24" y="180" width="208" height="40" rx="8" fill="none" stroke="#000000" />
      <text x="36" y="205" font-family="Arial" font-size="14" fill="#000000">Dashboard</text>
    
      <rect x="24" y="228" width="208" height="40" rx="8" fill="none" stroke="#000000" />
      <text x="36" y="253" font-family="Arial" font-size="14" fill="#000000">Projects</text>
    
      <rect x="24" y="276" width="208" height="40" rx="8" fill="none" stroke="#000000" />
      <text x="36" y="301" font-family="Arial" font-size="14" fill="#000000">Meetings</text>
    
      <rect x="24" y="324" width="208" height="40" rx="8" fill="none" stroke="#000000" />
      <text x="36" y="349" font-family="Arial" font-size="14" fill="#000000">Settings</text>
    
      
      <rect x="0" y="904" width="256" height="120" fill="#FFFFFF" stroke="#000000" />
      <rect x="24" y="920" width="208" height="72" rx="8" fill="none" stroke="#000000" />
      <circle cx="56" cy="956" r="20" fill="none" stroke="#000000" />
      <text x="84" y="951" font-family="Arial" font-size="14" fill="#000000">Alex Developer</text>
      <text x="84" y="968" font-family="Arial" font-size="12" fill="#000000">Owner</text>
      <rect x="24" y="1000" width="208" height="40" rx="8" fill="none" stroke="#000000" />
      <text x="36" y="1022" font-family="Arial" font-size="14" fill="#000000">Logout</text>
    </g>
  
  
    <rect x="272" y="16" width="1144" height="64" rx="12" fill="#FFFFFF" stroke="#000000" />
    <g transform="translate(272, 16)">
      <rect x="20" y="12" width="520" height="40" rx="8" fill="none" stroke="#000000" />
      <text x="40" y="38" font-family="Arial" font-size="14" fill="#000000">Search projects or tasks...</text>
      
      <circle cx="1080" cy="32" r="20" fill="none" stroke="#000000" />
      <circle cx="1120" cy="32" r="20" fill="none" stroke="#000000" />
    </g>
  
  
  <!-- Konten Utama -->
  <g transform="translate(272, 112)">
    <!-- Header Proyek -->
    <text x="0" y="30" font-family="Arial" font-size="32" font-weight="bold" fill="#000000">Neural Network</text>
    <g transform="translate(0, 45)">
      <rect x="0" y="0" width="92" height="28" rx="14" fill="#FFFFFF" stroke="#000000" />
      <text x="46" y="18" font-family="Arial" font-size="12" fill="#000000" text-anchor="middle">In Progress</text>
      <rect x="108" y="0" width="112" height="28" rx="14" fill="#FFFFFF" stroke="#000000" />
      <text x="164" y="18" font-family="Arial" font-size="12" fill="#000000" text-anchor="middle">4 members</text>
      <rect x="236" y="0" width="116" height="28" rx="14" fill="#FFFFFF" stroke="#000000" />
      <text x="294" y="18" font-family="Arial" font-size="12" fill="#000000" text-anchor="middle">80% complete</text>
    </g>
    
    
    <g transform="translate(0, 110)">
      <rect x="0" y="0" width="1000" height="52" rx="12" fill="none" stroke="#000000" />
      <g transform="translate(0, 0)">
        
      <rect x="8" y="6" width="140" height="40" rx="8" fill="none" stroke="#000000" />
      <text x="78" y="31" font-family="Arial" font-size="12" text-anchor="middle" fill="#000000">Milestones</text>
    
      <rect x="164" y="6" width="90" height="40" rx="8" fill="none" stroke="#000000" />
      <text x="209" y="31" font-family="Arial" font-size="12" text-anchor="middle" fill="#000000">Tasks</text>
    
      <rect x="270" y="6" width="120" height="40" rx="8" fill="none" stroke="#000000" />
      <text x="330" y="31" font-family="Arial" font-size="12" text-anchor="middle" fill="#000000">Overview</text>
    
      <rect x="406" y="6" width="110" height="40" rx="8" fill="none" stroke="#000000" />
      <text x="461" y="31" font-family="Arial" font-size="12" text-anchor="middle" fill="#000000">Members</text>
    
      <rect x="532" y="6" width="120" height="40" rx="8" fill="none" stroke="#000000" />
      <text x="592" y="31" font-family="Arial" font-size="12" text-anchor="middle" fill="#000000">Activity</text>
    
      <rect x="668" y="6" width="130" height="40" rx="8" fill="none" stroke="#000000" />
      <text x="733" y="31" font-family="Arial" font-size="12" text-anchor="middle" fill="#000000">AI Report</text>
    
      <rect x="814" y="6" width="130" height="40" rx="8" fill="none" stroke="#000000" />
      <text x="879" y="31" font-family="Arial" font-size="12" text-anchor="middle" fill="#000000">AI Health</text>
    
      </g>
    </g>
  
    
    <!-- Konten Milestones -->
    <g transform="translate(0, 190)">
      <rect x="0" y="0" width="1144" height="600" rx="16" fill="#FFFFFF" stroke="#000000" />
      <text x="24" y="40" font-family="Arial" font-size="18" font-weight="bold" fill="#000000">Milestones Timeline</text>
      <rect x="24" y="60" width="1096" height="520" rx="8" fill="#FFFFFF" stroke="#000000" />
      
      <!-- Timeline -->
      <g transform="translate(40, 80)">
        <!-- Garis waktu utama -->
        <line x1="30" y1="0" x2="30" y2="480" stroke="#000000" stroke-width="3" />
        
        <!-- Milestone 1: Done -->
        <circle cx="30" cy="40" r="12" fill="#000000" stroke="#000000" />
        <rect x="60" y="20" width="1000" height="80" rx="8" fill="#FFFFFF" stroke="#000000" />
        <text x="80" y="45" font-family="Arial" font-size="14" font-weight="bold" fill="#000000">Project Setup</text>
        <text x="80" y="65" font-family="Arial" font-size="12" fill="#000000">Completed: 2024-01-15</text>
        <rect x="900" y="45" width="60" height="24" rx="12" fill="none" stroke="#000000" />
        <text x="930" y="60" font-family="Arial" font-size="10" text-anchor="middle" fill="#000000">Done</text>
        
        <!-- Milestone 2: Active -->
        <circle cx="30" cy="160" r="12" fill="#FFFFFF" stroke="#000000" stroke-width="3" />
        <rect x="60" y="140" width="1000" height="80" rx="8" fill="#FFFFFF" stroke="#000000" />
        <text x="80" y="165" font-family="Arial" font-size="14" font-weight="bold" fill="#000000">MVP Development</text>
        <text x="80" y="185" font-family="Arial" font-size="12" fill="#000000">Due: 2024-02-28 • 75% complete</text>
        <rect x="900" y="165" width="80" height="24" rx="12" fill="none" stroke="#000000" />
        <text x="940" y="180" font-family="Arial" font-size="10" text-anchor="middle" fill="#000000">Active</text>
        <!-- Progress -->
        <rect x="80" y="200" width="960" height="8" rx="4" fill="none" stroke="#000000" />
        <rect x="80" y="200" width="720" height="8" rx="4" fill="#000000" />
        
        <!-- Milestone 3: Upcoming -->
        <circle cx="30" cy="280" r="12" fill="#FFFFFF" stroke="#000000" />
        <rect x="60" y="260" width="1000" height="80" rx="8" fill="#FFFFFF" stroke="#000000" />
        <text x="80" y="285" font-family="Arial" font-size="14" font-weight="bold" fill="#000000">Beta Testing</text>
        <text x="80" y="305" font-family="Arial" font-size="12" fill="#000000">Due: 2024-03-30</text>
        <rect x="900" y="285" width="80" height="24" rx="12" fill="none" stroke="#000000" />
        <text x="940" y="300" font-family="Arial" font-size="10" text-anchor="middle" fill="#000000">Upcoming</text>
        
        <!-- Milestone 4: Future -->
        <circle cx="30" cy="400" r="12" fill="#FFFFFF" stroke="#000000" />
        <rect x="60" y="380" width="1000" height="80" rx="8" fill="#FFFFFF" stroke="#000000" />
        <text x="80" y="405" font-family="Arial" font-size="14" font-weight="bold" fill="#000000">Launch</text>
        <text x="80" y="425" font-family="Arial" font-size="12" fill="#000000">Due: 2024-04-30</text>
      </g>
    </g>
  </g>
</svg>