
<svg width="1440" height="1024" viewBox="0 0 1440 1024" xmlns="http://www.w3.org/2000/svg">
  <rect width="1440" height="1024" fill="#FFFFFF" />
  
  
    <rect x="0" y="0" width="256" height="1024" fill="#FFFFFF" stroke="#000000" />
    <g transform="translate(0, 0)">
      <rect x="24" y="24" width="32" height="32" rx="8" fill="none" stroke="#000000" />
      <text x="68" y="46" font-family="Arial" font-size="20" font-weight="bold" fill="#000000">Bitspace</text>
      <line x1="24" y1="88" x2="232" y2="88" stroke="#000000" />
      
      
      <rect x="24" y="180" width="208" height="40" rx="8" fill="none" stroke="#000000" />
      <text x="36" y="205" font-family="Arial" font-size="14" fill="#000000">Dashboard</text>
    
      <rect x="24" y="228" width="208" height="40" rx="8" fill="none" stroke="#000000" />
      <text x="36" y="253" font-family="Arial" font-size="14" fill="#000000">Projects</text>
    
      <rect x="24" y="276" width="208" height="40" rx="8" fill="none" stroke="#000000" />
      <text x="36" y="301" font-family="Arial" font-size="14" fill="#000000">Meetings</text>
    
      <rect x="24" y="324" width="208" height="40" rx="8" fill="none" stroke="#000000" />
      <text x="36" y="349" font-family="Arial" font-size="14" fill="#000000">Settings</text>
    
      
      <rect x="0" y="904" width="256" height="120" fill="#FFFFFF" stroke="#000000" />
      <rect x="24" y="920" width="208" height="72" rx="8" fill="none" stroke="#000000" />
      <circle cx="56" cy="956" r="20" fill="none" stroke="#000000" />
      <text x="84" y="951" font-family="Arial" font-size="14" fill="#000000">Alex Developer</text>
      <text x="84" y="968" font-family="Arial" font-size="12" fill="#000000">Owner</text>
      <rect x="24" y="1000" width="208" height="40" rx="8" fill="none" stroke="#000000" />
      <text x="36" y="1022" font-family="Arial" font-size="14" fill="#000000">Logout</text>
    </g>
  
  
    <rect x="272" y="16" width="1144" height="64" rx="12" fill="#FFFFFF" stroke="#000000" />
    <g transform="translate(272, 16)">
      <rect x="20" y="12" width="520" height="40" rx="8" fill="none" stroke="#000000" />
      <text x="40" y="38" font-family="Arial" font-size="14" fill="#000000">Search projects or tasks...</text>
      
      <circle cx="1080" cy="32" r="20" fill="none" stroke="#000000" />
      <circle cx="1120" cy="32" r="20" fill="none" stroke="#000000" />
    </g>
  
  
  <!-- Konten Utama -->
  <g transform="translate(272, 112)">
    <!-- Header Proyek -->
    <text x="0" y="30" font-family="Arial" font-size="32" font-weight="bold" fill="#000000">Neural Network</text>
    
    
    <g transform="translate(0, 110)">
      <rect x="0" y="0" width="1000" height="52" rx="12" fill="none" stroke="#000000" />
      <g transform="translate(0, 0)">
        
      <rect x="8" y="6" width="140" height="40" rx="8" fill="none" stroke="#000000" />
      <text x="78" y="31" font-family="Arial" font-size="12" text-anchor="middle" fill="#000000">Milestones</text>
    
      <rect x="164" y="6" width="90" height="40" rx="8" fill="none" stroke="#000000" />
      <text x="209" y="31" font-family="Arial" font-size="12" text-anchor="middle" fill="#000000">Tasks</text>
    
      <rect x="270" y="6" width="120" height="40" rx="8" fill="none" stroke="#000000" />
      <text x="330" y="31" font-family="Arial" font-size="12" text-anchor="middle" fill="#000000">Overview</text>
    
      <rect x="406" y="6" width="110" height="40" rx="8" fill="none" stroke="#000000" />
      <text x="461" y="31" font-family="Arial" font-size="12" text-anchor="middle" fill="#000000">Members</text>
    
      <rect x="532" y="6" width="120" height="40" rx="8" fill="none" stroke="#000000" />
      <text x="592" y="31" font-family="Arial" font-size="12" text-anchor="middle" fill="#000000">Activity</text>
    
      <rect x="668" y="6" width="130" height="40" rx="8" fill="none" stroke="#000000" />
      <text x="733" y="31" font-family="Arial" font-size="12" text-anchor="middle" fill="#000000">AI Report</text>
    
      <rect x="814" y="6" width="130" height="40" rx="8" fill="none" stroke="#000000" />
      <text x="879" y="31" font-family="Arial" font-size="12" text-anchor="middle" fill="#000000">AI Health</text>
    
      </g>
    </g>
  
    
    <!-- Konten Overview -->
    <g transform="translate(0, 190)">
      <!-- Kiri: Deskripsi &amp; Info -->
      <rect x="0" y="0" width="556" height="600" rx="16" fill="#FFFFFF" stroke="#000000" />
      <text x="24" y="40" font-family="Arial" font-size="18" font-weight="bold" fill="#000000">Project Details</text>
      <g transform="translate(24, 60)">
        <text x="0" y="30" font-family="Arial" font-size="12" fill="#000000">Description</text>
        <rect x="0" y="40" width="508" height="80" rx="8" fill="none" stroke="#000000" />
        <text x="16" y="65" font-family="Arial" font-size="12" fill="#000000">AI-powered task management system with smart features</text>
        
        <text x="0" y="150" font-family="Arial" font-size="12" fill="#000000">Start Date</text>
        <rect x="0" y="160" width="240" height="48" rx="8" fill="none" stroke="#000000" />
        <text x="16" y="190" font-family="Arial" font-size="12" fill="#000000">2024-01-01</text>
        
        <text x="268" y="150" font-family="Arial" font-size="12" fill="#000000">Due Date</text>
        <rect x="268" y="160" width="240" height="48" rx="8" fill="none" stroke="#000000" />
        <text x="284" y="190" font-family="Arial" font-size="12" fill="#000000">2024-04-30</text>
        
        <!-- Tags -->
        <text x="0" y="230" font-family="Arial" font-size="12" fill="#000000">Tags</text>
        <g transform="translate(0, 240)">
          <rect x="0" y="0" width="80" height="32" rx="16" fill="none" stroke="#000000" />
          <text x="40" y="20" font-family="Arial" font-size="10" text-anchor="middle" fill="#000000">AI</text>
          <rect x="96" y="0" width="100" height="32" rx="16" fill="none" stroke="#000000" />
          <text x="146" y="20" font-family="Arial" font-size="10" text-anchor="middle" fill="#000000">ML</text>
          <rect x="212" y="0" width="120" height="32" rx="16" fill="none" stroke="#000000" />
          <text x="272" y="20" font-family="Arial" font-size="10" text-anchor="middle" fill="#000000">Productivity</text>
        </g>
      </g>
      
      <!-- Kanan: Charts -->
      <rect x="588" y="0" width="556" height="280" rx="16" fill="#FFFFFF" stroke="#000000" />
      <text x="612" y="40" font-family="Arial" font-size="18" font-weight="bold" fill="#000000">Task Progress</text>
      
    <g>
      <!-- Sumbu Y -->
      <line x1="608" y1="40" x2="608" y2="240" stroke="#000000" />
      <!-- Sumbu X -->
      <line x1="608" y1="240" x2="1124" y2="240" stroke="#000000" />
      <!-- Garis -->
      <polyline points="608,208.75 737,165 866,127.5 995,65 1124,40" fill="none" stroke="#000000" stroke-width="2" />
      <circle cx="608" cy="208.75" r="4" fill="#FFFFFF" stroke="#000000" /><circle cx="737" cy="165" r="4" fill="#FFFFFF" stroke="#000000" /><circle cx="866" cy="127.5" r="4" fill="#FFFFFF" stroke="#000000" /><circle cx="995" cy="65" r="4" fill="#FFFFFF" stroke="#000000" /><circle cx="1124" cy="40" r="4" fill="#FFFFFF" stroke="#000000" />
      <!-- Label X -->
      <text x="608" y="250" font-family="Arial" font-size="10" text-anchor="middle" fill="#000000">Week 1</text><text x="737" y="250" font-family="Arial" font-size="10" text-anchor="middle" fill="#000000">Week 2</text><text x="866" y="250" font-family="Arial" font-size="10" text-anchor="middle" fill="#000000">Week 3</text><text x="995" y="250" font-family="Arial" font-size="10" text-anchor="middle" fill="#000000">Week 4</text><text x="1124" y="250" font-family="Arial" font-size="10" text-anchor="middle" fill="#000000">Week 5</text>
    </g>
  
      
      <rect x="588" y="320" width="556" height="280" rx="16" fill="#FFFFFF" stroke="#000000" />
      <text x="612" y="360" font-family="Arial" font-size="18" font-weight="bold" fill="#000000">Team Workload</text>
      
    <g>
      <!-- Sumbu Y -->
      <line x1="608" y1="360" x2="608" y2="560" stroke="#000000" />
      <!-- Sumbu X -->
      <line x1="608" y1="560" x2="1124" y2="560" stroke="#000000" />
      
      <rect x="608" y="393.3333333333333" width="113" height="166.66666666666669" fill="none" stroke="#000000" />
      <text x="664.5" y="570" font-family="Arial" font-size="10" text-anchor="middle" fill="#000000">Alex</text>
    
      <rect x="737" y="426.6666666666667" width="113" height="133.33333333333331" fill="none" stroke="#000000" />
      <text x="793.5" y="570" font-family="Arial" font-size="10" text-anchor="middle" fill="#000000">Sarah</text>
    
      <rect x="866" y="360" width="113" height="200" fill="none" stroke="#000000" />
      <text x="922.5" y="570" font-family="Arial" font-size="10" text-anchor="middle" fill="#000000">Mike</text>
    
      <rect x="995" y="448.8888888888889" width="113" height="111.11111111111111" fill="none" stroke="#000000" />
      <text x="1051.5" y="570" font-family="Arial" font-size="10" text-anchor="middle" fill="#000000">Emma</text>
    
    </g>
  
    </g>
  </g>
</svg>