
<svg width="1440" height="1024" viewBox="0 0 1440 1024" xmlns="http://www.w3.org/2000/svg">
  <rect width="1440" height="1024" fill="#FFFFFF" />
  
  
    <rect x="0" y="0" width="256" height="1024" fill="#FFFFFF" stroke="#000000" />
    <g transform="translate(0, 0)">
      <rect x="24" y="24" width="32" height="32" rx="8" fill="none" stroke="#000000" />
      <text x="68" y="46" font-family="Arial" font-size="20" font-weight="bold" fill="#000000">Bitspace</text>
      <line x1="24" y1="88" x2="232" y2="88" stroke="#000000" />
      
      
      <rect x="24" y="180" width="208" height="40" rx="8" fill="none" stroke="#000000" />
      <text x="36" y="205" font-family="Arial" font-size="14" fill="#000000">Dashboard</text>
    
      <rect x="24" y="228" width="208" height="40" rx="8" fill="none" stroke="#000000" />
      <text x="36" y="253" font-family="Arial" font-size="14" fill="#000000">Projects</text>
    
      <rect x="24" y="276" width="208" height="40" rx="8" fill="none" stroke="#000000" />
      <text x="36" y="301" font-family="Arial" font-size="14" fill="#000000">Meetings</text>
    
      <rect x="24" y="324" width="208" height="40" rx="8" fill="none" stroke="#000000" />
      <text x="36" y="349" font-family="Arial" font-size="14" fill="#000000">Settings</text>
    
      
      <rect x="0" y="904" width="256" height="120" fill="#FFFFFF" stroke="#000000" />
      <rect x="24" y="920" width="208" height="72" rx="8" fill="none" stroke="#000000" />
      <circle cx="56" cy="956" r="20" fill="none" stroke="#000000" />
      <text x="84" y="951" font-family="Arial" font-size="14" fill="#000000">Alex Developer</text>
      <text x="84" y="968" font-family="Arial" font-size="12" fill="#000000">Owner</text>
      <rect x="24" y="1000" width="208" height="40" rx="8" fill="none" stroke="#000000" />
      <text x="36" y="1022" font-family="Arial" font-size="14" fill="#000000">Logout</text>
    </g>
  
  
    <rect x="272" y="16" width="1144" height="64" rx="12" fill="#FFFFFF" stroke="#000000" />
    <g transform="translate(272, 16)">
      <rect x="20" y="12" width="520" height="40" rx="8" fill="none" stroke="#000000" />
      <text x="40" y="38" font-family="Arial" font-size="14" fill="#000000">Search projects or tasks...</text>
      
      <circle cx="1080" cy="32" r="20" fill="none" stroke="#000000" />
      <circle cx="1120" cy="32" r="20" fill="none" stroke="#000000" />
    </g>
  
  
  <!-- Konten Utama -->
  <g transform="translate(272, 112)">
    <!-- Header Proyek -->
    <text x="0" y="30" font-family="Arial" font-size="32" font-weight="bold" fill="#000000">Neural Network</text>
    
    
    <g transform="translate(0, 110)">
      <rect x="0" y="0" width="1000" height="52" rx="12" fill="none" stroke="#000000" />
      <g transform="translate(0, 0)">
        
      <rect x="8" y="6" width="140" height="40" rx="8" fill="none" stroke="#000000" />
      <text x="78" y="31" font-family="Arial" font-size="12" text-anchor="middle" fill="#000000">Milestones</text>
    
      <rect x="164" y="6" width="90" height="40" rx="8" fill="none" stroke="#000000" />
      <text x="209" y="31" font-family="Arial" font-size="12" text-anchor="middle" fill="#000000">Tasks</text>
    
      <rect x="270" y="6" width="120" height="40" rx="8" fill="none" stroke="#000000" />
      <text x="330" y="31" font-family="Arial" font-size="12" text-anchor="middle" fill="#000000">Overview</text>
    
      <rect x="406" y="6" width="110" height="40" rx="8" fill="none" stroke="#000000" />
      <text x="461" y="31" font-family="Arial" font-size="12" text-anchor="middle" fill="#000000">Members</text>
    
      <rect x="532" y="6" width="120" height="40" rx="8" fill="none" stroke="#000000" />
      <text x="592" y="31" font-family="Arial" font-size="12" text-anchor="middle" fill="#000000">Activity</text>
    
      <rect x="668" y="6" width="130" height="40" rx="8" fill="none" stroke="#000000" />
      <text x="733" y="31" font-family="Arial" font-size="12" text-anchor="middle" fill="#000000">AI Report</text>
    
      <rect x="814" y="6" width="130" height="40" rx="8" fill="none" stroke="#000000" />
      <text x="879" y="31" font-family="Arial" font-size="12" text-anchor="middle" fill="#000000">AI Health</text>
    
      </g>
    </g>
  
    
    <!-- Konten AI Report -->
    <g transform="translate(0, 190)">
      <rect x="0" y="0" width="1144" height="600" rx="16" fill="#FFFFFF" stroke="#000000" />
      <text x="24" y="40" font-family="Arial" font-size="18" font-weight="bold" fill="#000000">AI Generated Report</text>
      
      <g transform="translate(24, 60)">
        <!-- Summary -->
        <rect x="0" y="0" width="1096" height="150" rx="8" fill="#FFFFFF" stroke="#000000" />
        <text x="20" y="30" font-family="Arial" font-size="14" font-weight="bold" fill="#000000">Executive Summary</text>
        <text x="20" y="55" font-family="Arial" font-size="12" fill="#000000">Project is on track. Team productivity is high. No major risks identified.</text>
        
        <!-- Rekomendasi -->
        <rect x="0" y="170" width="1096" height="200" rx="8" fill="#FFFFFF" stroke="#000000" />
        <text x="20" y="200" font-family="Arial" font-size="14" font-weight="bold" fill="#000000">Recommendations</text>
        <g transform="translate(20, 220)">
          <rect x="0" y="0" width="1056" height="40" rx="8" fill="none" stroke="#000000" />
          <text x="16" y="25" font-family="Arial" font-size="12" fill="#000000">1. Consider adding more QA resources for the upcoming beta testing phase</text>
          <rect x="0" y="50" width="1056" height="40" rx="8" fill="none" stroke="#000000" />
          <text x="16" y="75" font-family="Arial" font-size="12" fill="#000000">2. Schedule a design review for the new dashboard components</text>
        </g>
        
        <!-- Performance -->
        <rect x="0" y="390" width="540" height="180" rx="8" fill="#FFFFFF" stroke="#000000" />
        <text x="20" y="420" font-family="Arial" font-size="14" font-weight="bold" fill="#000000">Performance Metrics</text>
        
    <g>
      <circle cx="270" cy="500" r="60" fill="none" stroke="#000000" />
      
      <path d="M 270 500 L 270 440 A 60 60 0 1 1 212.93660902229078 481.45898033750314 Z" 
            fill="none" stroke="#000000" />
    
      <path d="M 270 500 L 212.93660902229078 481.45898033750314 A 60 60 0 0 1 251.45898033750314 442.9366090222908 Z" 
            fill="none" stroke="#000000" />
    
      <path d="M 270 500 L 251.45898033750314 442.9366090222908 A 60 60 0 0 1 270 440 Z" 
            fill="none" stroke="#000000" />
    
    </g>
  
        
        <rect x="556" y="390" width="540" height="180" rx="8" fill="#FFFFFF" stroke="#000000" />
        <text x="576" y="420" font-family="Arial" font-size="14" font-weight="bold" fill="#000000">Task Completion Trend</text>
        
    <g>
      <!-- Sumbu Y -->
      <line x1="576" y1="430" x2="576" y2="530" stroke="#000000" />
      <!-- Sumbu X -->
      <line x1="576" y1="530" x2="1076" y2="530" stroke="#000000" />
      
      <rect x="576" y="487.14285714285717" width="84" height="42.857142857142854" fill="none" stroke="#000000" />
      <text x="618" y="540" font-family="Arial" font-size="10" text-anchor="middle" fill="#000000">Mon</text>
    
      <rect x="676" y="458.57142857142856" width="84" height="71.42857142857143" fill="none" stroke="#000000" />
      <text x="718" y="540" font-family="Arial" font-size="10" text-anchor="middle" fill="#000000">Tue</text>
    
      <rect x="776" y="430" width="84" height="100" fill="none" stroke="#000000" />
      <text x="818" y="540" font-family="Arial" font-size="10" text-anchor="middle" fill="#000000">Wed</text>
    
      <rect x="876" y="444.2857142857143" width="84" height="85.71428571428571" fill="none" stroke="#000000" />
      <text x="918" y="540" font-family="Arial" font-size="10" text-anchor="middle" fill="#000000">Thu</text>
    
      <rect x="976" y="472.8571428571429" width="84" height="57.14285714285714" fill="none" stroke="#000000" />
      <text x="1018" y="540" font-family="Arial" font-size="10" text-anchor="middle" fill="#000000">Fri</text>
    
    </g>
  
      </g>
    </g>
  </g>
</svg>