
<svg width="1440" height="1024" viewBox="0 0 1440 1024" xmlns="http://www.w3.org/2000/svg">
  <rect width="1440" height="1024" fill="#FFFFFF" />
  
  
    <rect x="0" y="0" width="256" height="1024" fill="#FFFFFF" stroke="#000000" />
    <g transform="translate(0, 0)">
      <rect x="24" y="24" width="32" height="32" rx="8" fill="none" stroke="#000000" />
      <text x="68" y="46" font-family="Arial" font-size="20" font-weight="bold" fill="#000000">Bitspace</text>
      <line x1="24" y1="88" x2="232" y2="88" stroke="#000000" />
      
      
      <rect x="24" y="180" width="208" height="40" rx="8" fill="none" stroke="#000000" />
      <text x="36" y="205" font-family="Arial" font-size="14" fill="#000000">Dashboard</text>
    
      <rect x="24" y="228" width="208" height="40" rx="8" fill="none" stroke="#000000" />
      <text x="36" y="253" font-family="Arial" font-size="14" fill="#000000">Projects</text>
    
      <rect x="24" y="276" width="208" height="40" rx="8" fill="none" stroke="#000000" />
      <text x="36" y="301" font-family="Arial" font-size="14" fill="#000000">Meetings</text>
    
      <rect x="24" y="324" width="208" height="40" rx="8" fill="none" stroke="#000000" />
      <text x="36" y="349" font-family="Arial" font-size="14" fill="#000000">Settings</text>
    
      
      <rect x="0" y="904" width="256" height="120" fill="#FFFFFF" stroke="#000000" />
      <rect x="24" y="920" width="208" height="72" rx="8" fill="none" stroke="#000000" />
      <circle cx="56" cy="956" r="20" fill="none" stroke="#000000" />
      <text x="84" y="951" font-family="Arial" font-size="14" fill="#000000">Alex Developer</text>
      <text x="84" y="968" font-family="Arial" font-size="12" fill="#000000">Owner</text>
      <rect x="24" y="1000" width="208" height="40" rx="8" fill="none" stroke="#000000" />
      <text x="36" y="1022" font-family="Arial" font-size="14" fill="#000000">Logout</text>
    </g>
  
  
    <rect x="272" y="16" width="1144" height="64" rx="12" fill="#FFFFFF" stroke="#000000" />
    <g transform="translate(272, 16)">
      <rect x="20" y="12" width="520" height="40" rx="8" fill="none" stroke="#000000" />
      <text x="40" y="38" font-family="Arial" font-size="14" fill="#000000">Search projects or tasks...</text>
      
      <circle cx="1080" cy="32" r="20" fill="none" stroke="#000000" />
      <circle cx="1120" cy="32" r="20" fill="none" stroke="#000000" />
    </g>
  
  
  <!-- Konten Utama -->
  <g transform="translate(272, 112)">
    <!-- Header Proyek -->
    <text x="0" y="30" font-family="Arial" font-size="32" font-weight="bold" fill="#000000">Neural Network</text>
    <!-- Action buttons -->
    <rect x="700" y="0" width="140" height="40" rx="8" fill="none" stroke="#000000" />
    <text x="770" y="26" font-family="Arial" font-size="12" font-weight="bold" fill="#000000" text-anchor="middle">Auto-Plan (AI)</text>
    <rect x="860" y="0" width="280" height="40" rx="8" fill="none" stroke="#000000" />
    <text x="1000" y="26" font-family="Arial" font-size="12" fill="#000000">Filter tasks...</text>
    
    
    <g transform="translate(0, 110)">
      <rect x="0" y="0" width="1000" height="52" rx="12" fill="none" stroke="#000000" />
      <g transform="translate(0, 0)">
        
      <rect x="8" y="6" width="140" height="40" rx="8" fill="none" stroke="#000000" />
      <text x="78" y="31" font-family="Arial" font-size="12" text-anchor="middle" fill="#000000">Milestones</text>
    
      <rect x="164" y="6" width="90" height="40" rx="8" fill="none" stroke="#000000" />
      <text x="209" y="31" font-family="Arial" font-size="12" text-anchor="middle" fill="#000000">Tasks</text>
    
      <rect x="270" y="6" width="120" height="40" rx="8" fill="none" stroke="#000000" />
      <text x="330" y="31" font-family="Arial" font-size="12" text-anchor="middle" fill="#000000">Overview</text>
    
      <rect x="406" y="6" width="110" height="40" rx="8" fill="none" stroke="#000000" />
      <text x="461" y="31" font-family="Arial" font-size="12" text-anchor="middle" fill="#000000">Members</text>
    
      <rect x="532" y="6" width="120" height="40" rx="8" fill="none" stroke="#000000" />
      <text x="592" y="31" font-family="Arial" font-size="12" text-anchor="middle" fill="#000000">Activity</text>
    
      <rect x="668" y="6" width="130" height="40" rx="8" fill="none" stroke="#000000" />
      <text x="733" y="31" font-family="Arial" font-size="12" text-anchor="middle" fill="#000000">AI Report</text>
    
      <rect x="814" y="6" width="130" height="40" rx="8" fill="none" stroke="#000000" />
      <text x="879" y="31" font-family="Arial" font-size="12" text-anchor="middle" fill="#000000">AI Health</text>
    
      </g>
    </g>
  
    
    <!-- Kanban Board -->
    <g transform="translate(0, 190)">
      <!-- Kolom Backlog -->
      <rect x="0" y="0" width="200" height="600" rx="0" fill="#FFFFFF" stroke="#000000" />
      <text x="20" y="30" font-family="Arial" font-size="14" font-weight="bold" fill="#000000">Backlog</text>
      <rect x="160" y="15" width="30" height="24" rx="12" fill="none" stroke="#000000" />
      <text x="175" y="30" font-family="Arial" font-size="10" text-anchor="middle" fill="#000000">8</text>
      
    <rect x="10" y="50" width="180" height="120" rx="12" fill="#FFFFFF" stroke="#000000" />
    <text x="22" y="80" font-family="Arial" font-size="14" font-weight="bold" fill="#000000">Research ML</text>
    <text x="22" y="102" font-family="Arial" font-size="11" fill="#000000">Explore different architectures</text>
    <rect x="22" y="114" width="60" height="24" rx="12" fill="none" stroke="#000000" />
    <text x="52" y="130" font-family="Arial" font-size="10" text-anchor="middle" fill="#000000">Medium</text>
    <circle cx="166" cy="150" r="12" fill="none" stroke="#000000" />
  
      
    <rect x="10" y="190" width="180" height="120" rx="12" fill="#FFFFFF" stroke="#000000" />
    <text x="22" y="220" font-family="Arial" font-size="14" font-weight="bold" fill="#000000">Write Docs</text>
    <text x="22" y="242" font-family="Arial" font-size="11" fill="#000000">API documentation</text>
    <rect x="22" y="254" width="60" height="24" rx="12" fill="none" stroke="#000000" />
    <text x="52" y="270" font-family="Arial" font-size="10" text-anchor="middle" fill="#000000">Low</text>
    <circle cx="166" cy="290" r="12" fill="none" stroke="#000000" />
  
      
      <!-- Kolom To Do -->
      <rect x="232" y="0" width="200" height="600" rx="0" fill="#FFFFFF" stroke="#000000" />
      <text x="252" y="30" font-family="Arial" font-size="14" font-weight="bold" fill="#000000">To Do</text>
      <rect x="392" y="15" width="30" height="24" rx="12" fill="none" stroke="#000000" />
      <text x="407" y="30" font-family="Arial" font-size="10" text-anchor="middle" fill="#000000">5</text>
      
    <rect x="242" y="50" width="180" height="120" rx="12" fill="#FFFFFF" stroke="#000000" />
    <text x="254" y="80" font-family="Arial" font-size="14" font-weight="bold" fill="#000000">Setup DB</text>
    <text x="254" y="102" font-family="Arial" font-size="11" fill="#000000">Configure PostgreSQL</text>
    <rect x="254" y="114" width="60" height="24" rx="12" fill="none" stroke="#000000" />
    <text x="284" y="130" font-family="Arial" font-size="10" text-anchor="middle" fill="#000000">High</text>
    <circle cx="398" cy="150" r="12" fill="none" stroke="#000000" />
  
      
      <!-- Kolom In Progress -->
      <rect x="464" y="0" width="200" height="600" rx="0" fill="#FFFFFF" stroke="#000000" />
      <text x="484" y="30" font-family="Arial" font-size="14" font-weight="bold" fill="#000000">In Progress</text>
      <rect x="624" y="15" width="30" height="24" rx="12" fill="none" stroke="#000000" />
      <text x="639" y="30" font-family="Arial" font-size="10" text-anchor="middle" fill="#000000">6</text>
      
    <rect x="474" y="50" width="180" height="120" rx="12" fill="#FFFFFF" stroke="#000000" />
    <text x="486" y="80" font-family="Arial" font-size="14" font-weight="bold" fill="#000000">Build API</text>
    <text x="486" y="102" font-family="Arial" font-size="11" fill="#000000">RESTful endpoints</text>
    <rect x="486" y="114" width="60" height="24" rx="12" fill="none" stroke="#000000" />
    <text x="516" y="130" font-family="Arial" font-size="10" text-anchor="middle" fill="#000000">High</text>
    <circle cx="630" cy="150" r="12" fill="none" stroke="#000000" />
  
      
    <rect x="474" y="190" width="180" height="120" rx="12" fill="#FFFFFF" stroke="#000000" />
    <text x="486" y="220" font-family="Arial" font-size="14" font-weight="bold" fill="#000000">Design System</text>
    <text x="486" y="242" font-family="Arial" font-size="11" fill="#000000">Component library</text>
    <rect x="486" y="254" width="60" height="24" rx="12" fill="none" stroke="#000000" />
    <text x="516" y="270" font-family="Arial" font-size="10" text-anchor="middle" fill="#000000">Low</text>
    <circle cx="630" cy="290" r="12" fill="none" stroke="#000000" />
  
      
      <!-- Kolom Review -->
      <rect x="696" y="0" width="200" height="600" rx="0" fill="#FFFFFF" stroke="#000000" />
      <text x="716" y="30" font-family="Arial" font-size="14" font-weight="bold" fill="#000000">Review</text>
      <rect x="856" y="15" width="30" height="24" rx="12" fill="none" stroke="#000000" />
      <text x="871" y="30" font-family="Arial" font-size="10" text-anchor="middle" fill="#000000">4</text>
      
    <rect x="706" y="50" width="180" height="120" rx="12" fill="#FFFFFF" stroke="#000000" />
    <text x="718" y="80" font-family="Arial" font-size="14" font-weight="bold" fill="#000000">Code Review</text>
    <text x="718" y="102" font-family="Arial" font-size="11" fill="#000000">Auth module PR</text>
    <rect x="718" y="114" width="60" height="24" rx="12" fill="none" stroke="#000000" />
    <text x="748" y="130" font-family="Arial" font-size="10" text-anchor="middle" fill="#000000">Medium</text>
    <circle cx="862" cy="150" r="12" fill="none" stroke="#000000" />
  
      
      <!-- Kolom Done -->
      <rect x="928" y="0" width="200" height="600" rx="0" fill="#FFFFFF" stroke="#000000" />
      <text x="948" y="30" font-family="Arial" font-size="14" font-weight="bold" fill="#000000">Done</text>
      <rect x="1068" y="15" width="30" height="24" rx="12" fill="none" stroke="#000000" />
      <text x="1083" y="30" font-family="Arial" font-size="10" text-anchor="middle" fill="#000000">19</text>
      
    <rect x="938" y="50" width="180" height="120" rx="12" fill="#FFFFFF" stroke="#000000" />
    <text x="950" y="80" font-family="Arial" font-size="14" font-weight="bold" fill="#000000">Project Setup</text>
    <text x="950" y="102" font-family="Arial" font-size="11" fill="#000000">Initial configuration</text>
    <rect x="950" y="114" width="60" height="24" rx="12" fill="none" stroke="#000000" />
    <text x="980" y="130" font-family="Arial" font-size="10" text-anchor="middle" fill="#000000">High</text>
    <circle cx="1094" cy="150" r="12" fill="none" stroke="#000000" />
  
      
    <rect x="938" y="190" width="180" height="120" rx="12" fill="#FFFFFF" stroke="#000000" />
    <text x="950" y="220" font-family="Arial" font-size="14" font-weight="bold" fill="#000000">Initial Design</text>
    <text x="950" y="242" font-family="Arial" font-size="11" fill="#000000">Wireframes</text>
    <rect x="950" y="254" width="60" height="24" rx="12" fill="none" stroke="#000000" />
    <text x="980" y="270" font-family="Arial" font-size="10" text-anchor="middle" fill="#000000">Medium</text>
    <circle cx="1094" cy="290" r="12" fill="none" stroke="#000000" />
  
    </g>
  </g>
</svg>