<?xml version="1.0" encoding="UTF-8"?>
<svg width="595" height="842" viewBox="0 0 595 842" xmlns="http://www.w3.org/2000/svg" style="background: white;">
    
    <!-- Logo placeholder -->
    <rect x="28" y="28" width="43" height="43" fill="white" stroke="black" stroke-width="1"/>
    <text x="49" y="55" font-family="Arial" font-size="16" fill="black" text-anchor="middle" font-weight="bold">B</text>
    
    <!-- Company name -->
    <text x="80" y="50" font-family="Arial" font-size="18" fill="black" font-weight="bold">Bitora Protocol</text>
    
    <!-- Print date -->
    <text x="567" y="42" font-family="Arial" font-size="9" fill="black" text-anchor="end">Tanggal Cetak:</text>
    <text x="567" y="58" font-family="Arial" font-size="9" fill="black" text-anchor="end">16 Juli 2026</text>
    
    <!-- Report title -->
    <text x="297" y="95" font-family="Arial" font-size="16" fill="black" text-anchor="middle" font-weight="bold">LAPORAN PROGRESS MILESTONE</text>
    
    <!-- Project name -->
    <text x="30" y="120" font-family="Arial" font-size="12" fill="black">Project: Pengembangan Aplikasi Bitspace</text>
    
    <!-- Separator -->
    <line x1="28" y1="130" x2="567" y2="130" stroke="black" stroke-width="1"/>
  
    <text x="567" y="120" font-family="Arial" font-size="9" fill="black" text-anchor="end">Total Milestone: 4</text>
    
    <!-- Table header -->
    <rect x="28" y="135" width="40" height="20" fill="#f0f0f0" stroke="black" stroke-width="1"/>
    <rect x="73" y="135" width="110" height="20" fill="#f0f0f0" stroke="black" stroke-width="1"/>
    <rect x="188" y="135" width="100" height="20" fill="#f0f0f0" stroke="black" stroke-width="1"/>
    <rect x="293" y="135" width="80" height="20" fill="#f0f0f0" stroke="black" stroke-width="1"/>
    <rect x="378" y="135" width="90" height="20" fill="#f0f0f0" stroke="black" stroke-width="1"/>
    <rect x="473" y="135" width="80" height="20" fill="#f0f0f0" stroke="black" stroke-width="1"/>
    <text x="48" y="148" font-family="Arial" font-size="9" fill="black" text-anchor="middle" font-weight="bold">No</text>
    <text x="128" y="148" font-family="Arial" font-size="9" fill="black" text-anchor="middle" font-weight="bold">Milestone</text>
    <text x="238" y="148" font-family="Arial" font-size="9" fill="black" text-anchor="middle" font-weight="bold">Deskripsi</text>
    <text x="333" y="148" font-family="Arial" font-size="9" fill="black" text-anchor="middle" font-weight="bold">Status</text>
    <text x="423" y="148" font-family="Arial" font-size="9" fill="black" text-anchor="middle" font-weight="bold">Due Date</text>
    <text x="513" y="148" font-family="Arial" font-size="9" fill="black" text-anchor="middle" font-weight="bold">Progress</text>
    
    <!-- Table rows -->
    
      <rect x="28" y="160" width="40" height="20" fill="white" stroke="black" stroke-width="1"/>
      <rect x="73" y="160" width="110" height="20" fill="white" stroke="black" stroke-width="1"/>
      <rect x="188" y="160" width="100" height="20" fill="white" stroke="black" stroke-width="1"/>
      <rect x="293" y="160" width="80" height="20" fill="white" stroke="black" stroke-width="1"/>
      <rect x="378" y="160" width="90" height="20" fill="white" stroke="black" stroke-width="1"/>
      <rect x="473" y="160" width="80" height="20" fill="white" stroke="black" stroke-width="1"/>
      <text x="48" y="173" font-family="Arial" font-size="9" fill="black" text-anchor="middle">1</text>
      <text x="128" y="173" font-family="Arial" font-size="8.5" fill="black" text-anchor="middle">Planning Selesai</text>
      <text x="238" y="173" font-family="Arial" font-size="8" fill="black" text-anchor="middle">Finalisasi requirement dan timeline</text>
      <text x="333" y="173" font-family="Arial" font-size="8.5" fill="black" text-anchor="middle">Done</text>
      <text x="423" y="173" font-family="Arial" font-size="8.5" fill="black" text-anchor="middle">30/06/2024</text>
      <text x="513" y="173" font-family="Arial" font-size="9" fill="black" text-anchor="middle">100%</text>
    
      <rect x="28" y="185" width="40" height="20" fill="white" stroke="black" stroke-width="1"/>
      <rect x="73" y="185" width="110" height="20" fill="white" stroke="black" stroke-width="1"/>
      <rect x="188" y="185" width="100" height="20" fill="white" stroke="black" stroke-width="1"/>
      <rect x="293" y="185" width="80" height="20" fill="white" stroke="black" stroke-width="1"/>
      <rect x="378" y="185" width="90" height="20" fill="white" stroke="black" stroke-width="1"/>
      <rect x="473" y="185" width="80" height="20" fill="white" stroke="black" stroke-width="1"/>
      <text x="48" y="198" font-family="Arial" font-size="9" fill="black" text-anchor="middle">2</text>
      <text x="128" y="198" font-family="Arial" font-size="8.5" fill="black" text-anchor="middle">Development Phase 1</text>
      <text x="238" y="198" font-family="Arial" font-size="8" fill="black" text-anchor="middle">Setup dasar dan fitur inti</text>
      <text x="333" y="198" font-family="Arial" font-size="8.5" fill="black" text-anchor="middle">In Progress</text>
      <text x="423" y="198" font-family="Arial" font-size="8.5" fill="black" text-anchor="middle">31/07/2024</text>
      <text x="513" y="198" font-family="Arial" font-size="9" fill="black" text-anchor="middle">45%</text>
    
      <rect x="28" y="210" width="40" height="20" fill="white" stroke="black" stroke-width="1"/>
      <rect x="73" y="210" width="110" height="20" fill="white" stroke="black" stroke-width="1"/>
      <rect x="188" y="210" width="100" height="20" fill="white" stroke="black" stroke-width="1"/>
      <rect x="293" y="210" width="80" height="20" fill="white" stroke="black" stroke-width="1"/>
      <rect x="378" y="210" width="90" height="20" fill="white" stroke="black" stroke-width="1"/>
      <rect x="473" y="210" width="80" height="20" fill="white" stroke="black" stroke-width="1"/>
      <text x="48" y="223" font-family="Arial" font-size="9" fill="black" text-anchor="middle">3</text>
      <text x="128" y="223" font-family="Arial" font-size="8.5" fill="black" text-anchor="middle">Development Phase 2</text>
      <text x="238" y="223" font-family="Arial" font-size="8" fill="black" text-anchor="middle">Fitur lanjutan dan AI</text>
      <text x="333" y="223" font-family="Arial" font-size="8.5" fill="black" text-anchor="middle">Todo</text>
      <text x="423" y="223" font-family="Arial" font-size="8.5" fill="black" text-anchor="middle">31/08/2024</text>
      <text x="513" y="223" font-family="Arial" font-size="9" fill="black" text-anchor="middle">0%</text>
    
      <rect x="28" y="235" width="40" height="20" fill="white" stroke="black" stroke-width="1"/>
      <rect x="73" y="235" width="110" height="20" fill="white" stroke="black" stroke-width="1"/>
      <rect x="188" y="235" width="100" height="20" fill="white" stroke="black" stroke-width="1"/>
      <rect x="293" y="235" width="80" height="20" fill="white" stroke="black" stroke-width="1"/>
      <rect x="378" y="235" width="90" height="20" fill="white" stroke="black" stroke-width="1"/>
      <rect x="473" y="235" width="80" height="20" fill="white" stroke="black" stroke-width="1"/>
      <text x="48" y="248" font-family="Arial" font-size="9" fill="black" text-anchor="middle">4</text>
      <text x="128" y="248" font-family="Arial" font-size="8.5" fill="black" text-anchor="middle">Launch</text>
      <text x="238" y="248" font-family="Arial" font-size="8" fill="black" text-anchor="middle">Deploy ke production</text>
      <text x="333" y="248" font-family="Arial" font-size="8.5" fill="black" text-anchor="middle">Todo</text>
      <text x="423" y="248" font-family="Arial" font-size="8.5" fill="black" text-anchor="middle">15/09/2024</text>
      <text x="513" y="248" font-family="Arial" font-size="9" fill="black" text-anchor="middle">0%</text>
    
    
    
    <!-- Footer -->
    <text x="567" y="820" font-family="Arial" font-size="8" fill="black" text-anchor="end">Dicetak oleh sistem dashboard Bitora Protocol</text>
  
</svg>